<mxfile host="app.diagrams.net" agent="Mozilla/5.0 (Windows NT 10.0; Win64; x64) AppleWebKit/537.36 (KHTML, like Gecko) Chrome/127.0.0.0 Safari/537.36" version="24.7.6">
  <diagram name="Page-1" id="VwSXo2XMwWpswuJNakhm">
    <mxGraphModel dx="545" dy="1438" grid="1" gridSize="10" guides="1" tooltips="1" connect="1" arrows="1" fold="1" page="1" pageScale="1" pageWidth="850" pageHeight="1100" math="0" shadow="0">
      <root>
        <mxCell id="0" />
        <mxCell id="1" parent="0" />
        <mxCell id="zSgEy182Ln_HpLDODCWY-6" value="flowmap pemesanan ayam bakar" style="swimlane;childLayout=stackLayout;resizeParent=1;resizeParentMax=0;startSize=20;html=1;" vertex="1" parent="1">
          <mxGeometry x="200.00000000000045" y="-240" width="400" height="480" as="geometry" />
        </mxCell>
        <mxCell id="zSgEy182Ln_HpLDODCWY-7" value="pembeli" style="swimlane;startSize=20;html=1;" vertex="1" parent="zSgEy182Ln_HpLDODCWY-6">
          <mxGeometry y="20" width="130" height="460" as="geometry" />
        </mxCell>
        <mxCell id="zSgEy182Ln_HpLDODCWY-10" value="Mulai" style="ellipse;whiteSpace=wrap;html=1;" vertex="1" parent="zSgEy182Ln_HpLDODCWY-7">
          <mxGeometry x="22.5" y="40" width="77.5" height="50" as="geometry" />
        </mxCell>
        <mxCell id="zSgEy182Ln_HpLDODCWY-11" value="" style="endArrow=classic;html=1;rounded=0;exitX=0.5;exitY=1;exitDx=0;exitDy=0;entryX=0.453;entryY=0.023;entryDx=0;entryDy=0;entryPerimeter=0;" edge="1" parent="zSgEy182Ln_HpLDODCWY-7" source="zSgEy182Ln_HpLDODCWY-10" target="zSgEy182Ln_HpLDODCWY-44">
          <mxGeometry width="50" height="50" relative="1" as="geometry">
            <mxPoint x="159.99999999999955" y="250" as="sourcePoint" />
            <mxPoint x="60.750000000000114" y="123.70000000000005" as="targetPoint" />
          </mxGeometry>
        </mxCell>
        <mxCell id="zSgEy182Ln_HpLDODCWY-44" value="memesan&lt;div&gt;menu&lt;/div&gt;" style="shape=document;whiteSpace=wrap;html=1;boundedLbl=1;" vertex="1" parent="zSgEy182Ln_HpLDODCWY-7">
          <mxGeometry x="25.630000000000003" y="120" width="78.75" height="50" as="geometry" />
        </mxCell>
        <mxCell id="zSgEy182Ln_HpLDODCWY-45" value="pembeli&lt;div&gt;membayar&lt;/div&gt;" style="shape=document;whiteSpace=wrap;html=1;boundedLbl=1;" vertex="1" parent="zSgEy182Ln_HpLDODCWY-7">
          <mxGeometry x="20" y="290" width="84.38" height="50" as="geometry" />
        </mxCell>
        <mxCell id="zSgEy182Ln_HpLDODCWY-8" value="kasir/pelayan" style="swimlane;startSize=20;html=1;" vertex="1" parent="zSgEy182Ln_HpLDODCWY-6">
          <mxGeometry x="130" y="20" width="140" height="460" as="geometry" />
        </mxCell>
        <mxCell id="zSgEy182Ln_HpLDODCWY-21" value="mencatat&lt;div&gt;menu&lt;/div&gt;" style="shape=document;whiteSpace=wrap;html=1;boundedLbl=1;" vertex="1" parent="zSgEy182Ln_HpLDODCWY-8">
          <mxGeometry x="30.62" y="120" width="78.75" height="50" as="geometry" />
        </mxCell>
        <mxCell id="zSgEy182Ln_HpLDODCWY-22" value="memberi pesanan ke&lt;div&gt;koki&lt;/div&gt;" style="verticalLabelPosition=middle;verticalAlign=middle;html=1;shape=trapezoid;perimeter=trapezoidPerimeter;whiteSpace=wrap;size=0.23;arcSize=10;flipV=1;labelPosition=center;align=center;" vertex="1" parent="zSgEy182Ln_HpLDODCWY-8">
          <mxGeometry x="25" y="200" width="90" height="50" as="geometry" />
        </mxCell>
        <mxCell id="zSgEy182Ln_HpLDODCWY-23" value="" style="endArrow=classic;html=1;rounded=0;exitX=0.48;exitY=0.851;exitDx=0;exitDy=0;exitPerimeter=0;" edge="1" parent="zSgEy182Ln_HpLDODCWY-8" source="zSgEy182Ln_HpLDODCWY-21" target="zSgEy182Ln_HpLDODCWY-22">
          <mxGeometry width="50" height="50" relative="1" as="geometry">
            <mxPoint x="79.99999999999955" y="320" as="sourcePoint" />
            <mxPoint x="129.99999999999955" y="270" as="targetPoint" />
          </mxGeometry>
        </mxCell>
        <mxCell id="zSgEy182Ln_HpLDODCWY-50" value="pesanan di antar&lt;div&gt;ke pembeli&lt;/div&gt;" style="verticalLabelPosition=middle;verticalAlign=middle;html=1;shape=trapezoid;perimeter=trapezoidPerimeter;whiteSpace=wrap;size=0.23;arcSize=10;flipV=1;labelPosition=center;align=center;" vertex="1" parent="zSgEy182Ln_HpLDODCWY-8">
          <mxGeometry x="10" y="290" width="120" height="50" as="geometry" />
        </mxCell>
        <mxCell id="zSgEy182Ln_HpLDODCWY-52" value="membayar/&lt;div&gt;selesai&lt;/div&gt;" style="rhombus;whiteSpace=wrap;html=1;" vertex="1" parent="zSgEy182Ln_HpLDODCWY-8">
          <mxGeometry x="24.999999999999545" y="350" width="80" height="80" as="geometry" />
        </mxCell>
        <mxCell id="zSgEy182Ln_HpLDODCWY-9" value="koki" style="swimlane;startSize=20;html=1;" vertex="1" parent="zSgEy182Ln_HpLDODCWY-6">
          <mxGeometry x="270" y="20" width="130" height="460" as="geometry" />
        </mxCell>
        <mxCell id="zSgEy182Ln_HpLDODCWY-25" value="koki memasak&lt;div&gt;pesanan&lt;/div&gt;&lt;div&gt;&lt;br&gt;&lt;/div&gt;" style="verticalLabelPosition=middle;verticalAlign=middle;html=1;shape=trapezoid;perimeter=trapezoidPerimeter;whiteSpace=wrap;size=0.23;arcSize=10;flipV=1;labelPosition=center;align=center;" vertex="1" parent="zSgEy182Ln_HpLDODCWY-9">
          <mxGeometry x="20" y="200" width="95" height="50" as="geometry" />
        </mxCell>
        <mxCell id="zSgEy182Ln_HpLDODCWY-27" value="&lt;div&gt;pesanan&lt;/div&gt;&lt;div&gt;pun telah&lt;/div&gt;&lt;div&gt;jadi&lt;/div&gt;" style="verticalLabelPosition=middle;verticalAlign=middle;html=1;shape=trapezoid;perimeter=trapezoidPerimeter;whiteSpace=wrap;size=0.23;arcSize=10;flipV=1;labelPosition=center;align=center;" vertex="1" parent="zSgEy182Ln_HpLDODCWY-9">
          <mxGeometry x="20" y="280" width="95" height="50" as="geometry" />
        </mxCell>
        <mxCell id="zSgEy182Ln_HpLDODCWY-20" value="" style="endArrow=classic;html=1;rounded=0;exitX=1;exitY=0.5;exitDx=0;exitDy=0;entryX=0;entryY=0.5;entryDx=0;entryDy=0;" edge="1" parent="zSgEy182Ln_HpLDODCWY-6" source="zSgEy182Ln_HpLDODCWY-44" target="zSgEy182Ln_HpLDODCWY-21">
          <mxGeometry width="50" height="50" relative="1" as="geometry">
            <mxPoint x="102.15000000000009" y="165" as="sourcePoint" />
            <mxPoint x="161.5000000000001" y="165" as="targetPoint" />
          </mxGeometry>
        </mxCell>
        <mxCell id="zSgEy182Ln_HpLDODCWY-24" value="" style="endArrow=classic;html=1;rounded=0;exitX=1;exitY=0.5;exitDx=0;exitDy=0;entryX=0;entryY=0.5;entryDx=0;entryDy=0;" edge="1" parent="zSgEy182Ln_HpLDODCWY-6" source="zSgEy182Ln_HpLDODCWY-22" target="zSgEy182Ln_HpLDODCWY-25">
          <mxGeometry width="50" height="50" relative="1" as="geometry">
            <mxPoint x="209.99999999999955" y="230" as="sourcePoint" />
            <mxPoint x="299.99999999999955" y="245" as="targetPoint" />
          </mxGeometry>
        </mxCell>
        <mxCell id="zSgEy182Ln_HpLDODCWY-26" value="" style="endArrow=classic;html=1;rounded=0;exitX=0.5;exitY=1;exitDx=0;exitDy=0;" edge="1" parent="zSgEy182Ln_HpLDODCWY-6" source="zSgEy182Ln_HpLDODCWY-25">
          <mxGeometry width="50" height="50" relative="1" as="geometry">
            <mxPoint x="245" y="255" as="sourcePoint" />
            <mxPoint x="337.99999999999955" y="300" as="targetPoint" />
          </mxGeometry>
        </mxCell>
        <mxCell id="zSgEy182Ln_HpLDODCWY-29" value="" style="endArrow=classic;html=1;rounded=0;exitX=0;exitY=0.75;exitDx=0;exitDy=0;entryX=1;entryY=0.5;entryDx=0;entryDy=0;" edge="1" parent="zSgEy182Ln_HpLDODCWY-6" source="zSgEy182Ln_HpLDODCWY-27" target="zSgEy182Ln_HpLDODCWY-50">
          <mxGeometry width="50" height="50" relative="1" as="geometry">
            <mxPoint x="347" y="280" as="sourcePoint" />
            <mxPoint x="250" y="335" as="targetPoint" />
          </mxGeometry>
        </mxCell>
        <mxCell id="zSgEy182Ln_HpLDODCWY-35" value="" style="endArrow=classic;html=1;rounded=0;exitX=0;exitY=0.5;exitDx=0;exitDy=0;entryX=1;entryY=0.5;entryDx=0;entryDy=0;" edge="1" parent="zSgEy182Ln_HpLDODCWY-6" target="zSgEy182Ln_HpLDODCWY-45">
          <mxGeometry width="50" height="50" relative="1" as="geometry">
            <mxPoint x="150" y="335" as="sourcePoint" />
            <mxPoint x="109.99999999999955" y="340" as="targetPoint" />
          </mxGeometry>
        </mxCell>
        <mxCell id="zSgEy182Ln_HpLDODCWY-37" value="" style="endArrow=classic;html=1;rounded=0;exitX=0.547;exitY=0.84;exitDx=0;exitDy=0;entryX=0;entryY=0.5;entryDx=0;entryDy=0;exitPerimeter=0;" edge="1" parent="zSgEy182Ln_HpLDODCWY-6" source="zSgEy182Ln_HpLDODCWY-45" target="zSgEy182Ln_HpLDODCWY-52">
          <mxGeometry width="50" height="50" relative="1" as="geometry">
            <mxPoint x="64.995" y="365" as="sourcePoint" />
            <mxPoint x="149.30000000000007" y="410" as="targetPoint" />
            <Array as="points">
              <mxPoint x="64.99999999999955" y="410" />
            </Array>
          </mxGeometry>
        </mxCell>
        <mxCell id="zSgEy182Ln_HpLDODCWY-51" value="" style="edgeStyle=orthogonalEdgeStyle;rounded=0;orthogonalLoop=1;jettySize=auto;html=1;entryX=1;entryY=0.5;entryDx=0;entryDy=0;" edge="1" parent="zSgEy182Ln_HpLDODCWY-6" source="zSgEy182Ln_HpLDODCWY-50" target="zSgEy182Ln_HpLDODCWY-45">
          <mxGeometry relative="1" as="geometry" />
        </mxCell>
      </root>
    </mxGraphModel>
  </diagram>
</mxfile>
